<svg width="16" height="16" viewBox="0 0 16 16" fill="none" xmlns="http://www.w3.org/2000/svg">
<path d="M8.42358 15.0647C4.28133 15.0647 0.923584 11.7069 0.923584 7.5647C0.923584 3.42245 4.28133 0.0646973 8.42358 0.0646973C12.5658 0.0646973 15.9236 3.42245 15.9236 7.5647C15.9236 11.7069 12.5658 15.0647 8.42358 15.0647ZM6.70608 13.3149C5.96614 11.7454 5.53749 10.0474 5.44383 8.3147H2.47008C2.61602 9.46887 3.09402 10.5558 3.84601 11.4435C4.598 12.3311 5.59159 12.9813 6.70608 13.3149ZM6.94608 8.3147C7.05933 10.1439 7.58208 11.8622 8.42358 13.3787C9.28782 11.8221 9.79267 10.0918 9.90108 8.3147H6.94608ZM14.3771 8.3147H11.4033C11.3097 10.0474 10.881 11.7454 10.1411 13.3149C11.2556 12.9813 12.2492 12.3311 13.0012 11.4435C13.7531 10.5558 14.2311 9.46887 14.3771 8.3147ZM2.47008 6.8147H5.44383C5.53749 5.08204 5.96614 3.38396 6.70608 1.81445C5.59159 2.14811 4.598 2.79826 3.84601 3.68592C3.09402 4.57358 2.61602 5.66052 2.47008 6.8147ZM6.94683 6.8147H9.90033C9.79215 5.03765 9.28756 3.30735 8.42358 1.7507C7.55934 3.30728 7.0545 5.03759 6.94608 6.8147H6.94683ZM10.1411 1.81445C10.881 3.38396 11.3097 5.08204 11.4033 6.8147H14.3771C14.2311 5.66052 13.7531 4.57358 13.0012 3.68592C12.2492 2.79826 11.2556 2.14811 10.1411 1.81445Z" fill="#525866"/>
</svg>
