<svg width="170" height="36" viewBox="0 0 170 36" fill="none" xmlns="http://www.w3.org/2000/svg">
<path d="M56.4933 24.5803V28.2496H41.4197V6.71893H56.2181V10.3882H45.6392V15.5738H54.7506V18.9702H45.6392V24.5803H56.4933Z" fill="#414141"/>
<path d="M62.0578 28.1695L56.1567 12.2102H60.3762L64.4732 24.454L68.5091 12.2102H72.3922L66.4911 28.1695H62.0578Z" fill="#414141"/>
<path d="M75.8472 18.8755H84.2247C84.1431 18.0785 83.9137 17.3862 83.5368 16.7984C83.1594 16.2106 82.6654 15.7524 82.0539 15.4237C81.4424 15.095 80.7592 14.9306 80.0054 14.9306C79.2716 14.9306 78.6036 15.095 78.0027 15.4237C77.4012 15.7524 76.9121 16.2106 76.5351 16.7984C76.1577 17.3862 75.9283 18.0785 75.8472 18.8755ZM80.0359 28.3862C78.7518 28.3862 77.5899 28.1692 76.5503 27.7363C75.5108 27.3029 74.6242 26.708 73.8903 25.9521C73.1566 25.1962 72.5957 24.3341 72.2087 23.3665C71.8213 22.3989 71.6278 21.3607 71.6278 20.2516C71.6278 18.7598 71.9688 17.3837 72.6521 16.1232C73.3348 14.8628 74.3031 13.8545 75.5567 13.0986C76.8103 12.3428 78.3133 11.9642 80.0665 11.9642C81.7988 11.9642 83.287 12.3432 84.5305 13.1001C85.7735 13.8574 86.7319 14.8518 87.4046 16.0835C88.0772 17.3154 88.4135 18.658 88.4135 20.1116C88.4135 20.3745 88.4031 20.6214 88.383 20.8537C88.3624 21.0859 88.3418 21.2828 88.3218 21.4442H75.9695C76.0306 22.2814 76.2599 22.9939 76.6574 23.5816C77.0548 24.1693 77.5642 24.6227 78.1861 24.9415C78.8077 25.2607 79.4651 25.4198 80.1582 25.4198C80.9939 25.4198 81.7735 25.221 82.4973 24.8234C83.2205 24.426 83.715 23.8908 83.9802 23.218L87.4658 24.1965C87.0988 25.0122 86.5585 25.7361 85.8452 26.3677C85.1315 26.9999 84.2859 27.4945 83.3074 27.851C82.329 28.2074 81.2384 28.3862 80.0359 28.3862Z" fill="#414141"/>
<path d="M104.405 28.1695H100.308V19.2597C100.308 17.9869 100.088 17.0576 99.6502 16.4716C99.2116 15.8859 98.5847 15.5928 97.7698 15.5928C97.2195 15.5928 96.6638 15.7331 96.1035 16.0131C95.5426 16.2938 95.0433 16.6791 94.6053 17.1691C94.1667 17.6597 93.8256 18.2252 93.581 18.8657V28.1695H89.5145V12.2102H93.2141V15.1873C93.6215 14.4982 94.1413 13.9203 94.7734 13.4542C95.4049 12.9882 96.1287 12.623 96.9442 12.3597C97.7593 12.0964 98.6359 11.9642 99.5737 11.9642C100.572 11.9642 101.393 12.1421 102.035 12.4966C102.677 12.8512 103.166 13.3327 103.503 13.9408C103.839 14.5491 104.073 15.2228 104.206 15.9627C104.338 16.7026 104.405 17.4474 104.405 18.1968V28.1695Z" fill="#414141"/>
<path d="M116.084 27.1928C115.717 27.3527 115.294 27.5173 114.815 27.6865C114.336 27.8562 113.817 27.9955 113.256 28.1054C112.695 28.2147 112.13 28.27 111.559 28.27C110.784 28.27 110.081 28.1414 109.45 27.8847C108.818 27.6276 108.313 27.2177 107.936 26.6543C107.559 26.0914 107.37 25.3551 107.37 24.4463V15.0999H105.291V12.048H107.37V6.76443H111.498V12.048H114.861V15.0999H111.498V23.084C111.518 23.616 111.671 24.0049 111.957 24.2509C112.242 24.4968 112.609 24.6197 113.057 24.6197C113.465 24.6197 113.872 24.5449 114.28 24.3954C114.688 24.2457 115.024 24.1111 115.289 23.9913L116.084 27.1928Z" fill="#414141"/>
<path d="M135.469 6.71896V28.2496H131.28V19.0612H121.435V28.2496H117.215V6.71896H121.435V15.4222H131.28V6.71896H135.469Z" fill="#414141"/>
<path d="M141.156 18.8755H149.534C149.452 18.0785 149.223 17.3862 148.846 16.7984C148.468 16.2106 147.974 15.7524 147.363 15.4237C146.751 15.095 146.068 14.9306 145.314 14.9306C144.58 14.9306 143.912 15.095 143.312 15.4237C142.71 15.7524 142.221 16.2106 141.844 16.7984C141.467 17.3862 141.237 18.0785 141.156 18.8755ZM145.345 28.3862C144.061 28.3862 142.899 28.1692 141.859 27.7363C140.82 27.3029 139.933 26.708 139.199 25.9521C138.465 25.1962 137.905 24.3341 137.518 23.3665C137.13 22.3989 136.937 21.3607 136.937 20.2516C136.937 18.7598 137.278 17.3837 137.961 16.1232C138.644 14.8628 139.612 13.8545 140.865 13.0986C142.119 12.3428 143.622 11.9642 145.375 11.9642C147.108 11.9642 148.596 12.3432 149.839 13.1001C151.082 13.8574 152.041 14.8518 152.713 16.0835C153.386 17.3154 153.722 18.658 153.722 20.1116C153.722 20.3745 153.712 20.6214 153.692 20.8537C153.671 21.0859 153.651 21.2828 153.631 21.4442H141.278C141.339 22.2814 141.569 22.9939 141.966 23.5816C142.364 24.1693 142.873 24.6227 143.495 24.9415C144.116 25.2607 144.774 25.4198 145.467 25.4198C146.303 25.4198 147.082 25.221 147.806 24.8234C148.529 24.426 149.024 23.8908 149.289 23.218L152.775 24.1965C152.408 25.0122 151.867 25.7361 151.154 26.3677C150.44 26.9999 149.595 27.4945 148.616 27.851C147.638 28.2074 146.547 28.3862 145.345 28.3862Z" fill="#414141"/>
<path d="M156.841 12.2088L160.174 17.2366L160.449 17.8224L160.755 17.2366L164.087 12.2088H168.398L162.834 20.2591L168.49 28.3707H164.179L160.754 23.3434L160.449 22.8189L160.204 23.3434L156.78 28.3707H152.469L158.125 20.3516L152.56 12.2088H156.841Z" fill="#414141"/>
<path d="M12.6847 1.60706C6.29444 1.60706 1.09546 6.80584 1.09546 13.1962V22.8801C1.09546 29.2704 6.29444 34.4693 12.6847 34.4693H22.3686C28.7588 34.4693 33.9577 29.2704 33.9577 22.8801V18.5821L28.8011 21.6437V22.8801C28.8011 26.4269 25.9154 29.3125 22.3686 29.3125H12.6847C9.13779 29.3125 6.25219 26.4269 6.25219 22.8801V13.1962C6.25219 9.6493 9.13779 6.7637 12.6847 6.7637H22.3686C24.7009 6.7637 26.8738 8.06251 27.9997 10.0967L17.3784 16.5346L14.4214 11.656L13.2833 12.3458C13.284 12.3471 13.2849 12.3482 13.2857 12.3495C13.6248 12.918 13.4252 13.6618 12.8401 14.0108C12.2589 14.3573 11.5164 14.1836 11.1742 13.6243L10.0115 14.329L15.6413 23.6174L33.9408 12.5257L33.9235 12.2992C33.81 10.818 33.4172 9.39899 32.7621 8.07359L32.7697 8.06903L32.4223 7.41605L32.4165 7.41941C30.3478 3.82425 26.5334 1.60706 22.3686 1.60706H12.6847Z" fill="#375DFB"/>
</svg>
