<svg width="264" height="52" viewBox="0 0 264 52" fill="none" xmlns="http://www.w3.org/2000/svg">
<path d="M87.6408 36.5078V42.2651H63.9895V8.48245H87.209V14.2397H70.6101V22.3761H84.9064V27.7053H70.6101V36.5078H87.6408Z" fill="#F8F8F8"/>
<path d="M96.3719 42.1394L87.1128 17.0986H93.7333L100.162 36.3097L106.494 17.0986H112.587L103.328 42.1394H96.3719Z" fill="#F8F8F8"/>
<path d="M118.008 27.5567H131.153C131.025 26.3062 130.665 25.2198 130.073 24.2975C129.481 23.3753 128.706 22.6563 127.747 22.1406C126.787 21.6248 125.715 21.3669 124.532 21.3669C123.381 21.3669 122.333 21.6248 121.39 22.1406C120.446 22.6563 119.679 23.3753 119.087 24.2975C118.495 25.2198 118.135 26.3062 118.008 27.5567ZM124.58 42.4794C122.565 42.4794 120.742 42.1389 119.111 41.4596C117.48 40.7796 116.089 39.8462 114.937 38.6601C113.786 37.4741 112.906 36.1215 112.299 34.6033C111.691 33.0851 111.387 31.456 111.387 29.7158C111.387 27.3752 111.923 25.2159 112.995 23.2382C114.066 21.2604 115.585 19.6784 117.552 18.4924C119.519 17.3064 121.877 16.7125 124.628 16.7125C127.346 16.7125 129.681 17.3071 131.632 18.4947C133.583 19.683 135.087 21.2432 136.142 23.1759C137.197 25.1088 137.725 27.2154 137.725 29.4961C137.725 29.9086 137.709 30.2961 137.677 30.6605C137.645 31.0248 137.613 31.3339 137.581 31.5871H118.2C118.296 32.9007 118.656 34.0186 119.279 34.9407C119.903 35.8629 120.702 36.5743 121.678 37.0745C122.653 37.5753 123.685 37.825 124.772 37.825C126.083 37.825 127.307 37.5131 128.442 36.8892C129.577 36.2656 130.353 35.4258 130.769 34.3702L136.238 35.9056C135.662 37.1854 134.814 38.3213 133.695 39.3123C132.575 40.3043 131.249 41.0802 129.713 41.6396C128.178 42.1988 126.467 42.4794 124.58 42.4794Z" fill="#F8F8F8"/>
<path d="M162.816 42.1394H156.387V28.1595C156.387 26.1624 156.043 24.7043 155.356 23.7848C154.668 22.8658 153.684 22.4059 152.406 22.4059C151.542 22.4059 150.67 22.6261 149.791 23.0655C148.911 23.5058 148.128 24.1104 147.44 24.8793C146.752 25.649 146.217 26.5363 145.833 27.5412V42.1394H139.453V17.0985H145.257V21.7696C145.897 20.6885 146.712 19.7818 147.704 19.0505C148.695 18.3192 149.831 17.7461 151.11 17.333C152.389 16.9199 153.765 16.7126 155.236 16.7126C156.803 16.7126 158.09 16.9916 159.098 17.5479C160.105 18.1043 160.873 18.8597 161.401 19.8139C161.928 20.7684 162.296 21.8255 162.504 22.9864C162.712 24.1473 162.816 25.3159 162.816 26.4918V42.1394Z" fill="#F8F8F8"/>
<path d="M181.143 40.607C180.567 40.8579 179.903 41.1161 179.152 41.3816C178.4 41.6478 177.584 41.8665 176.705 42.0389C175.825 42.2104 174.937 42.2971 174.042 42.2971C172.826 42.2971 171.723 42.0954 170.732 41.6926C169.74 41.2892 168.949 40.646 168.357 39.762C167.765 38.8788 167.47 37.7235 167.47 36.2976V21.6325H164.208V16.844H167.47V8.55383H173.946V16.844H179.224V21.6325H173.946V34.1601C173.978 34.9948 174.218 35.6049 174.666 35.9909C175.114 36.3767 175.689 36.5697 176.393 36.5697C177.032 36.5697 177.672 36.4523 178.312 36.2177C178.951 35.9828 179.479 35.7716 179.895 35.5837L181.143 40.607Z" fill="#F8F8F8"/>
<path d="M211.558 8.48248V42.2651H204.985V27.848H189.537V42.2651H182.917V8.48248H189.537V22.1383H204.985V8.48248H211.558Z" fill="#F8F8F8"/>
<path d="M220.481 27.5567H233.626C233.498 26.3062 233.138 25.2198 232.546 24.2975C231.954 23.3753 231.179 22.6563 230.22 22.1406C229.26 21.6248 228.188 21.3669 227.005 21.3669C225.854 21.3669 224.806 21.6248 223.863 22.1406C222.919 22.6563 222.152 23.3753 221.56 24.2975C220.968 25.2198 220.608 26.3062 220.481 27.5567ZM227.053 42.4794C225.039 42.4794 223.215 42.1389 221.584 41.4596C219.953 40.7796 218.562 39.8462 217.411 38.6601C216.259 37.4741 215.379 36.1215 214.772 34.6033C214.164 33.0851 213.861 31.456 213.861 29.7158C213.861 27.3752 214.396 25.2159 215.468 23.2382C216.539 21.2604 218.058 19.6784 220.025 18.4924C221.992 17.3064 224.35 16.7125 227.101 16.7125C229.819 16.7125 232.154 17.3071 234.106 18.4947C236.056 19.683 237.56 21.2432 238.615 23.1759C239.671 25.1088 240.198 27.2154 240.198 29.4961C240.198 29.9086 240.182 30.2961 240.15 30.6605C240.118 31.0248 240.086 31.3339 240.054 31.5871H220.673C220.769 32.9007 221.129 34.0186 221.752 34.9407C222.376 35.8629 223.175 36.5743 224.151 37.0745C225.126 37.5753 226.158 37.825 227.245 37.825C228.556 37.825 229.78 37.5131 230.915 36.8892C232.05 36.2656 232.826 35.4258 233.242 34.3702L238.711 35.9056C238.135 37.1854 237.288 38.3213 236.168 39.3123C235.049 40.3043 233.722 41.0802 232.187 41.6396C230.651 42.1988 228.94 42.4794 227.053 42.4794Z" fill="#F8F8F8"/>
<path d="M245.091 17.0963L250.32 24.9852L250.752 25.9042L251.232 24.9852L256.461 17.0963H263.226L254.494 29.7276L263.37 42.4551H256.605L251.232 34.5671L250.752 33.744L250.369 34.5671L244.995 42.4551H238.231L247.106 29.8727L238.375 17.0963H245.091Z" fill="#F8F8F8"/>
<path d="M18.9028 0.21875C8.87621 0.21875 0.71875 8.37591 0.71875 18.4028V33.5972C0.71875 43.6239 8.87621 51.7812 18.9028 51.7812H34.0973C44.1239 51.7812 52.2812 43.6239 52.2812 33.5972V26.8535L44.1902 31.6572V33.5972C44.1902 39.1624 39.6624 43.69 34.0973 43.69H18.9028C13.3376 43.69 8.80992 39.1624 8.80992 33.5972V18.4028C8.80992 12.8374 13.3376 8.30978 18.9028 8.30978H34.0973C37.7569 8.30978 41.1663 10.3477 42.9329 13.5395L26.2675 23.6407L21.6278 15.9861L19.8421 17.0684C19.8432 17.0705 19.8446 17.0722 19.8458 17.0742C20.3779 17.9662 20.0648 19.1332 19.1467 19.6809C18.2348 20.2246 17.0698 19.9519 16.5327 19.0744L14.7085 20.1801L23.5419 34.754L52.2547 17.3506L52.2276 16.9953C52.0495 14.6712 51.4332 12.4447 50.4052 10.3651L50.4172 10.3579L49.8721 9.33335L49.8631 9.33862C46.6171 3.69763 40.6321 0.21875 34.0973 0.21875H18.9028Z" fill="white"/>
</svg>
